$MeshFormat
2.2 0 8
$EndMeshFormat
$Nodes
353
1 -1.7 -0.3 0
2 -1.2 -0 0
3 -0.5 -0.3 0
4 -0.4 -0.7 0
5 -0.8 -0.8 0
6 -1.2 -0.5 0
7 -1.8 -0.5 0
8 -1.1 0.6 0
9 -0.5 0.7 0
10 -0.1 0.2 0
11 -0.3 -0.1 0
12 -0.7 0.2 0
13 -1.1 0.4 0
14 -1.5 0.5 0
15 -2.5 1.5 0
16 -2.5 -1.5 0
17 1.5 -1.5 0
18 1.5 1.5 0
19 -2.5 1.000000000001852 0
20 -2.5 0.5000000000037035 0
21 -2.5 5.511369138844202e-12 0
22 -2.5 -0.4999999999962939 0
23 -2.5 -0.9999999999981473 0
24 -1.999999999999001 -1.5 0
25 -1.500000000000692 -1.5 0
26 -1.000000000002427 -1.5 0
27 -0.5000000000041176 -1.5 0
28 -3.12061487761639e-12 -1.5 0
29 0.4999999999979194 -1.5 0
30 0.9999999999989599 -1.5 0
31 1.5 -1.000000000001852 0
32 1.5 -0.5000000000037035 0
33 1.5 -5.511369138844202e-12 0
34 1.5 0.4999999999962939 0
35 1.5 0.9999999999981473 0
36 1.000000000001387 1.5 0
37 0.5000000000027741 1.5 0
38 4.161559985504937e-12 1.5 0
39 -0.4999999999944944 1.5 0
40 -0.9999999999958384 1.5 0
41 -1.499999999997226 1.5 0
42 -1.999999999998613 1.5 0
43 -1.412313170933137 0.5387581293840903 0
44 -1.315701999749117 0.5594366023120179 0
45 -1.218580431604965 0.5776152341700126 0
46 -1.121455440655589 0.5957757658134935 0
47 -1.025423804428698 0.6188375015730099 0
48 -0.9310385003695921 0.6480611162716255 0
49 -0.8366284040224083 0.6772054277720185 0
50 -0.7409912453138409 0.7019588374420074 0
51 -0.6434093304505971 0.7169811347583956 0
52 -0.5449690579658054 0.7129300203361641 0
53 -0.4538413535862872 0.6763163190256076 0
54 -0.3757236675618034 0.6160418317592692 0
55 -0.3068658841700961 0.5452470884526653 0
56 -0.2449774248586347 0.4682572801025617 0
57 -0.1892834478671903 0.386669102591881 0
58 -0.1404253985219313 0.3008243997372088 0
59 -0.1026249471289324 0.2096758006613478 0
60 -0.09949912172404024 0.1119671270352344 0
61 -0.1363068851915008 0.02077689931666775 0
62 -0.1995046250419896 -0.05465950285567303 0
63 -0.2863657840153819 -0.09901283407607273 0
64 -0.3784323196415316 -0.06982876524889722 0
65 -0.4563092008464824 -0.009146806107506993 0
66 -0.5293345374511547 0.05740854021247017 0
67 -0.6022321848058035 0.1241054911857324 0
68 -0.6791183527724851 0.1860907188997493 0
69 -0.7630605219287498 0.2381701295098667 0
70 -0.8493158571090051 0.2863551528230667 0
71 -0.9375404691950352 0.3308298324639604 0
72 -1.027693036899844 0.3712510460522016 0
73 -1.119824976551226 0.4068935198095598 0
74 -1.215512390603544 0.4313535398107174 0
75 -1.312596115687698 0.4497109337351595 0
76 -1.409854090979294 0.4671393682887098 0
77 -1.103025956182501 -0.01093791804570501 0
78 -1.008455185994576 -0.03547446529298422 0
79 -0.9162407204272114 -0.06782808066844161 0
80 -0.8261554730745777 -0.1057268859039319 0
81 -0.7381411267534657 -0.1482185390249325 0
82 -0.6523958107729665 -0.1951177715061796 0
83 -0.5696297454365362 -0.247078290856085 0
84 -0.4924004421795841 -0.3068555834953346 0
85 -0.4310485909203579 -0.382546347336274 0
86 -0.3914246865351934 -0.4716234422397352 0
87 -0.3745084634551885 -0.5676443167683667 0
88 -0.3846890128609558 -0.6643939239611897 0
89 -0.441414685182892 -0.7412440394306549 0
90 -0.5295949105858875 -0.782661611558733 0
91 -0.6247419253068198 -0.8045186541597824 0
92 -0.7221990277289443 -0.8101640234130614 0
93 -0.8182439623652592 -0.7942528883152875 0
94 -0.9002205392363057 -0.7419222727874923 0
95 -0.9703986997233111 -0.6739337041180311 0
96 -1.03915180773334 -0.604467264008582 0
97 -1.1143599472095 -0.5422030423847394 0
98 -1.201811796589054 -0.499463803225577 0
99 -1.298250850494252 -0.4848557353331741 0
100 -1.395960363513601 -0.4845480678746176 0
101 -1.49351206700423 -0.4905696469218827 0
102 -1.590882322367329 -0.4991120275181201 0
103 -1.688326660410884 -0.5067065324696667 0
104 -1.785804979417211 -0.504105054506707 0
105 -1.827472580240487 -0.4342878313479536 0
106 -1.766348362749905 -0.3586360048635875 0
107 -1.692984294448582 -0.2940783337365164 0
108 -1.620092772467588 -0.2289606215783608 0
109 -1.54628734430755 -0.1648868655338131 0
110 -1.468846868251666 -0.1052860422582179 0
111 -1.38595673903492 -0.05360078071229148 0
112 -1.296159226933312 -0.01538079412264755 0
113 -0.1067010512297588 -0.08554889847233747 0
114 -1.638892489183772 -0.1321843298252967 0
115 -1.358923120639151 -0.5961842698948726 0
116 -1.632845216108008 -0.5876746916378608 0
117 -0.2996298607995288 -0.5056130963496769 0
118 -0.04201782274481449 0.2858940905295009 0
119 -0.1457289655424559 0.4753467833287255 0
120 -0.2813521695236499 0.6469148283023176 0
121 -1.464280503112276 -0.01251154772333584 0
122 -1.066389121576552 -0.6990344595328741 0
123 -1.812528944422481 -0.2617255536940823 0
124 -1.380229016731202 0.3807149570610227 0
125 1.08660457733892 -0.2838807314576636 0
126 -1.190650683540549 0.3396907241234297 0
127 -0.3529998959325489 -0.7767829517397171 0
128 -1.184929895039249 0.6716698983448092 0
129 -1.384107971104066 0.6298639032486738 0
130 -1.007501609982939 0.7154628493844408 0
131 -0.8054298657384924 0.7741380288025574 0
132 -1.017620148214656 0.272971384111537 0
133 -1.264224542983359 0.07284623656867756 0
134 -0.4676968103145288 0.7735420766621071 0
135 -0.9309116386752461 0.02409594553182095 0
136 -0.9431670724928667 -0.856482328559251 0
137 0.2724348430242263 -1.08676536633351 0
138 -0.6950081876693237 0.08306450717953087 0
139 0.3188517019046316 1.152383866866894 0
140 -0.398016898997073 -0.2963858618887597 0
141 -0.671876546465592 -0.8867759659000936 0
142 -2.146676794632309 0.7564646655028098 0
143 1.043717934866511 0.7244994743976281 0
144 -1.19509913874953 -0.5965689459757822 0
145 -0.6567040829268103 -0.0807172480538742 0
146 -0.5906864443429614 0.8000708360272776 0
147 -0.4923772131868429 0.8779683889685428 0
148 -0.8523897121410647 0.1843320670812995 0
149 -0.03916279386205293 0.03458953951964996 0
150 0.008473542817596902 -0.06062424058331322 0
151 0.08665788939106231 0.03374079278950447 0
152 0.1319360948921366 -0.1016426908983161 0
153 -0.005726937400663702 -0.1787345946464931 0
154 0.2560026847793963 0.0261526351030203 0
155 0.1371517999601836 -0.2739757832908435 0
156 0.3203838903569922 -0.1479864145272083 0
157 0.3299160178278552 -0.3630454374849664 0
158 0.09367430342221772 -0.4658788518013655 0
159 0.4920322693751512 0.01243611705152585 0
160 0.3488412058342081 0.2270718408828497 0
161 0.5978302588373559 0.2224433603264375 0
162 0.496199124054954 0.4523478385787213 0
163 0.5587791827638698 -0.2218126367506447 0
164 0.5640021785602951 -0.482849268507617 0
165 -0.4693516997193111 -0.1061981145093431 0
166 -1.768630804655546 -1.122064936492239 0
167 -1.277507501572033 -1.125004992098945 0
168 -0.2822731730083856 -0.60174395852433 0
169 -0.1930049433477568 -0.5338475297706663 0
170 -0.1689655080862756 -0.6595850970996489 0
171 -0.2336638748831924 -0.421617501229856 0
172 -1.164928772489818 0.08883022097833444 0
173 -1.226833987591508 0.1642872291498301 0
174 -1.326352665908323 0.1476807147245019 0
175 0.2577142830292483 0.4372281761807303 0
176 -1.06489514513681 0.0996635413406515 0
177 -0.2036748973368148 -0.1485687120838807 0
178 -1.28710112967382 0.2307943746351168 0
179 -1.384660874480514 0.2214541734211442 0
180 -1.419591318062546 0.1359153245446197 0
181 -1.482105776301614 0.2133045822118362 0
182 -1.516465563693239 0.1198991107619126 0
183 -1.589106615484023 0.211434051888111 0
184 -1.630339932806725 0.09804804519756799 0
185 -1.716837295609799 0.2103386986165983 0
186 -1.760612603921555 0.06331798192029089 0
187 -1.897997565599295 0.1891640600810007 0
188 -1.934592695602758 0.006259390533537157 0
189 -1.799500059329502 0.3535777056302695 0
190 -1.539544491215627 0.3199091584337146 0
191 -1.981578050783182 0.3507922189498307 0
192 -0.167221050439567 -1.130902501427762 0
193 -1.249999999996532 1.120590854453345 0
194 -1.663168246815744 1.116283826597563 0
195 -0.3668327861757407 0.7252299212258134 0
196 -0.2531082290676048 0.7524413772935105 0
197 -0.1570220846440058 0.6872128415355527 0
198 -0.1520188256083367 0.8526000173737425 0
199 0.001011352455405979 0.7541842424643455 0
200 0.3690105625886444 0.6563245734001202 0
201 -1.489591000249411 0.5932541008178008 0
202 -1.127442005246747 0.1697889302925591 0
203 0.004858556162948442 0.1532162537875117 0
204 0.07605548171426529 0.255704283971568 0
205 -2.17652406930846 -0.7569870216259338 0
206 -1.902632630096852 -0.4984772486389045 0
207 -0.3378839775218744 0.8644872832818701 0
208 -0.2946729458479184 -0.1930678545250209 0
209 -1.541642073494537 -0.8589552322074749 0
210 1.130189612484906 0.2278386773965747 0
211 -0.2136547311344628 -0.2491521137733154 0
212 -0.2281421993641523 1.068009993816827 0
213 -0.873348206653924 1.144477209415675 0
214 -1.72488249781974 -0.5780565857935479 0
215 -0.02456949663795283 -0.3160467473968713 0
216 -0.6980892218099051 0.8007491163387547 0
217 0.7376104835016485 -1.118665860980918 0
218 0.7093362630259069 1.094650244993643 0
219 -0.08278102220230986 0.3823914766628579 0
220 -0.03749307384810318 0.4776284313180451 0
221 0.06126066718258939 0.3869627396903559 0
222 -0.5524129053167787 -0.04741431472519692 0
223 -2.183626544820938 -0.3979567863599225 0
224 -0.210619178168249 0.569338791101733 0
225 1.044061440326139 -0.7757468738417961 0
226 -0.4603220848184401 -0.2144482359212635 0
227 -1.554438309744517 -0.06846108258462277 0
228 -0.8421908639660002 -0.009529805966232045 0
229 -0.7563987927015372 -0.04815894773758241 0
230 -1.477576220227825 0.4026939683493941 0
231 -1.573027906755462 0.4294260868644502 0
232 -1.587625691682069 0.5369534240290538 0
233 -1.565851212013587 0.645418353026303 0
234 -0.3227306699855439 -0.3591544392005735 0
235 -0.9577702987710641 -1.161863592721319 0
236 0.01881070678434725 -0.8856088340301798 0
237 0.2594480530520673 -0.8062710693597558 0
238 -2.155993030388883 -1.13618047081369 0
239 -0.5601360548318071 -0.1484956625953237 0
240 -0.623638917834435 0.0247991180021132 0
241 -0.5015507454208744 -1.14805420271948 0
242 -1.64793036325454 -0.01692386102360877 0
243 -1.772047017306234 -0.08550975686875432 0
244 -1.3741216330188 0.04319195868054712 0
245 -1.424697833715411 0.8946998522135918 0
246 0.7963203817274921 0.4348736567378568 0
247 -0.994091301477633 -0.7533341248509726 0
248 -1.081188876176227 -0.8134599710198895 0
249 -1.284599276930328 0.6525822838230038 0
250 -1.236006424865419 0.7475296866081661 0
251 -1.119783948508026 0.7839767503491749 0
252 -1.53566547801349 -0.579280639998635 0
253 -0.9077556428283338 0.7453091518104487 0
254 -0.9859196673942683 0.8348528786067009 0
255 -1.185662735983336 -0.7185989914537687 0
256 -1.031500491552359 0.1846083757024913 0
257 -0.8538690313181676 0.08246061455143877 0
258 -0.954088100812001 0.1186973896102869 0
259 -1.717973461152537 -0.1964957606321005 0
260 -0.9404091298373534 0.2296323669654403 0
261 -1.282232014133165 0.3665844204878052 0
262 -1.223876316311713 -0.8833030235803188 0
263 -1.347487078780684 -0.7546007050828156 0
264 -1.900509105240627 -0.1544916532864097 0
265 -1.962462845517385 -0.3075142183591666 0
266 -2.116800955797157 -0.1120039732116683 0
267 -2.166379634657204 0.1676281491584242 0
268 -0.5008522517653673 1.185650781130511 0
269 -1.452517688963591 -0.5621258954110603 0
270 -1.435195638450432 0.3062276520680494 0
271 -1.0918189397229 0.6771445530929856 0
272 -0.7913432476958363 0.8637122778318965 0
273 -0.6591067586250485 0.9584293083454464 0
274 -1.595661853560338 -0.6970751569882442 0
275 -1.71025907683704 -0.8202975489888639 0
276 -1.90784911129904 -0.7303728996709771 0
277 -0.7687509010802367 0.1361681829218907 0
278 -1.105130748558441 0.3133019513338949 0
279 -0.07506706896097469 0.5896253064366205 0
280 -2.086688677696264 1.121599367604136 0
281 -1.848195740710771 0.8219865222568654 0
282 -1.695602522114687 0.6244169279338303 0
283 -0.05610448193665388 -0.5588837285626412 0
284 -1.703386652354685 0.4713659265336212 0
285 -1.655623693892733 0.3369384105870376 0
286 -1.181342758626261 0.2511416813369934 0
287 -0.3566960241347613 -0.9693761174254067 0
288 -0.4393625659077811 -0.8369739522669064 0
289 -0.5526237375660324 -0.9228591867058931 0
290 -0.2409997640824234 -0.8530559070098875 0
291 -1.902769109886803 0.5443635103763604 0
292 -1.083320208375643 0.9506850166986761 0
293 0.6541208419702546 0.7034911053792237 0
294 -0.3894734231783881 -0.1528335370243157 0
295 0.07462014347814423 -0.6571063413415467 0
296 -0.7703932309286674 0.04272538052717713 0
297 0.6131708549245044 -0.7956978625175812 0
298 -0.3060483907651888 -0.2776733264726236 0
299 0.1651286289792374 0.1624343742108003 0
300 0.801239709981041 0.003196866924095632 0
301 -1.118788143048378 -0.6333464765109225 0
302 -1.543494316730359 0.03079403805915473 0
303 -1.337145217666645 0.7535794171616383 0
304 -1.464514031100309 0.7135299393392981 0
305 -1.064365581744463 -0.9754280523470384 0
306 1.15633438476535 -1.178882546964914 0
307 -0.2859854707941179 -0.7111123676669547 0
308 -0.9044287295884681 0.9597393389591392 0
309 -1.336127516659886 0.3007538121564092 0
310 -0.883954660534805 0.8444526395144574 0
311 0.7720042907381225 -0.3232197900096348 0
312 -2.038865945744305 -0.5749120041310705 0
313 -1.994991713658265 -0.4464406101515449 0
314 -1.856372577635686 -0.3554935240356207 0
315 -1.265902235174545 -0.5682466305542276 0
316 -1.272971469637835 -0.655323413775692 0
317 0.09944953598155977 0.5740407488713213 0
318 1.150610839578761 1.163829943877884 0
319 0.02674380923895648 1.029701313140644 0
320 -1.471982882241965 -0.674703649930517 0
321 -1.735650254587548 -0.6715129261169432 0
322 -1.451696837712703 0.06438667210309923 0
323 -1.973692488445913 -0.9289746381770878 0
324 0.1873270577245023 0.2976613253879022 0
325 -2.1394807179919 0.4638497087982257 0
326 -1.844193945594289 -0.6096930950579034 0
327 -1.610338264411751 0.8027225702279086 0
328 -1.241825605521279 0.8751769295807652 0
329 -1.910874805340807 -0.4118033356854178 0
330 -0.3658633384471646 -0.2240672346691195 0
331 -0.3475145625143787 -0.8590472321104795 0
332 -1.092607230439693 0.2383624645554951 0
333 0.8044145037911405 -0.5775017898896112 0
334 -1.517767249705951 -1.093166820111211 0
335 -1.010599189686742 0.03861322590196567 0
336 -0.2430152079019039 -0.3259160160443508 0
337 -0.1459372434395671 -0.32420237497476 0
338 -0.09326762280381753 -0.4367461222893599 0
339 0.3008577876331627 -0.566410467195689 0
340 -0.4241497661308866 1.012941668802285 0
341 -0.1203704898851757 -0.2133651395549176 0
342 0.4832488129423884 0.9263143533160588 0
343 -0.3317168978645193 -0.4332934139716953 0
344 -0.9063747917609103 -0.9835788720734562 0
345 -0.8315364811395454 -0.9099483631092975 0
346 -0.7392890598439631 -1.02606282929476 0
347 -0.7397220208084891 -1.267196124947112 0
348 -0.7534073350599516 -0.8849645596296836 0
349 0.2163859625185978 0.8488248496765639 0
350 -1.800841647990481 -0.1740503378656768 0
351 -1.381656043972984 -0.9430061546161532 0
352 -0.7004286424121547 0.00434256198347292 0
353 -1.247346426490184 0.2987472952653171 0
$EndNodes
$Elements
702
1 15 2 0 1 1
2 15 2 0 2 2
3 15 2 0 3 3
4 15 2 0 4 4
5 15 2 0 5 5
6 15 2 0 6 6
7 15 2 0 7 7
8 15 2 0 8 8
9 15 2 0 9 9
10 15 2 0 10 10
11 15 2 0 11 11
12 15 2 0 12 12
13 15 2 0 13 13
14 15 2 0 14 14
15 15 2 0 15 15
16 15 2 0 16 16
17 15 2 0 17 17
18 15 2 0 18 18
19 1 2 0 1 15 19
20 1 2 0 1 19 20
21 1 2 0 1 20 21
22 1 2 0 1 21 22
23 1 2 0 1 22 23
24 1 2 0 1 23 16
25 1 2 0 2 16 24
26 1 2 0 2 24 25
27 1 2 0 2 25 26
28 1 2 0 2 26 27
29 1 2 0 2 27 28
30 1 2 0 2 28 29
31 1 2 0 2 29 30
32 1 2 0 2 30 17
33 1 2 0 3 17 31
34 1 2 0 3 31 32
35 1 2 0 3 32 33
36 1 2 0 3 33 34
37 1 2 0 3 34 35
38 1 2 0 3 35 18
39 1 2 0 4 18 36
40 1 2 0 4 36 37
41 1 2 0 4 37 38
42 1 2 0 4 38 39
43 1 2 0 4 39 40
44 1 2 0 4 40 41
45 1 2 0 4 41 42
46 1 2 0 4 42 15
47 1 2 0 5 14 43
48 1 2 0 5 43 44
49 1 2 0 5 44 45
50 1 2 0 5 45 46
51 1 2 0 5 46 47
52 1 2 0 5 47 48
53 1 2 0 5 48 49
54 1 2 0 5 49 50
55 1 2 0 5 50 51
56 1 2 0 5 51 52
57 1 2 0 5 52 53
58 1 2 0 5 53 54
59 1 2 0 5 54 55
60 1 2 0 5 55 56
61 1 2 0 5 56 57
62 1 2 0 5 57 58
63 1 2 0 5 58 59
64 1 2 0 5 59 60
65 1 2 0 5 60 61
66 1 2 0 5 61 62
67 1 2 0 5 62 63
68 1 2 0 5 63 64
69 1 2 0 5 64 65
70 1 2 0 5 65 66
71 1 2 0 5 66 67
72 1 2 0 5 67 68
73 1 2 0 5 68 69
74 1 2 0 5 69 70
75 1 2 0 5 70 71
76 1 2 0 5 71 72
77 1 2 0 5 72 73
78 1 2 0 5 73 74
79 1 2 0 5 74 75
80 1 2 0 5 75 76
81 1 2 0 5 76 14
82 1 2 0 6 2 77
83 1 2 0 6 77 78
84 1 2 0 6 78 79
85 1 2 0 6 79 80
86 1 2 0 6 80 81
87 1 2 0 6 81 82
88 1 2 0 6 82 83
89 1 2 0 6 83 84
90 1 2 0 6 84 85
91 1 2 0 6 85 86
92 1 2 0 6 86 87
93 1 2 0 6 87 88
94 1 2 0 6 88 89
95 1 2 0 6 89 90
96 1 2 0 6 90 91
97 1 2 0 6 91 92
98 1 2 0 6 92 93
99 1 2 0 6 93 94
100 1 2 0 6 94 95
101 1 2 0 6 95 96
102 1 2 0 6 96 97
103 1 2 0 6 97 98
104 1 2 0 6 98 99
105 1 2 0 6 99 100
106 1 2 0 6 100 101
107 1 2 0 6 101 102
108 1 2 0 6 102 103
109 1 2 0 6 103 104
110 1 2 0 6 104 105
111 1 2 0 6 105 106
112 1 2 0 6 106 107
113 1 2 0 6 107 108
114 1 2 0 6 108 109
115 1 2 0 6 109 110
116 1 2 0 6 110 111
117 1 2 0 6 111 112
118 1 2 0 6 112 2
119 2 2 0 10 127 290 307
120 2 2 0 10 54 120 195
121 2 2 0 10 115 269 320
122 2 2 0 10 206 312 326
123 2 2 0 10 241 289 346
124 2 2 0 10 27 192 241
125 2 2 0 10 142 20 325
126 2 2 0 10 38 212 319
127 2 2 0 10 226 165 239
128 2 2 0 10 83 226 239
129 2 2 0 10 272 273 308
130 2 2 0 10 127 89 288
131 2 2 0 10 91 141 289
132 2 2 0 10 66 67 240
133 2 2 0 10 159 163 300
134 2 2 0 10 167 26 235
135 2 2 0 10 133 174 244
136 2 2 0 10 236 170 290
137 2 2 0 10 39 213 268
138 2 2 0 10 60 149 203
139 2 2 0 10 208 63 294
140 2 2 0 10 28 137 192
141 2 2 0 10 131 50 216
142 2 2 0 10 210 143 246
143 2 2 0 10 38 39 268
144 2 2 0 10 166 25 334
145 2 2 0 10 113 62 177
146 2 2 0 10 214 104 326
147 2 2 0 10 192 137 236
148 2 2 0 10 34 143 210
149 2 2 0 10 161 159 300
150 2 2 0 10 19 20 142
151 2 2 0 10 246 161 300
152 2 2 0 10 67 138 240
153 2 2 0 10 237 137 297
154 2 2 0 10 24 25 166
155 2 2 0 10 32 125 225
156 2 2 0 10 170 236 295
157 2 2 0 10 268 213 273
158 2 2 0 10 118 59 203
159 2 2 0 10 172 77 176
160 2 2 0 10 139 38 319
161 2 2 0 10 222 66 240
162 2 2 0 10 222 145 239
163 2 2 0 10 152 150 153
164 2 2 0 10 290 170 307
165 2 2 0 10 283 170 295
166 2 2 0 10 52 134 146
167 2 2 0 10 193 194 245
168 2 2 0 10 37 38 139
169 2 2 0 10 145 222 240
170 2 2 0 10 174 180 244
171 2 2 0 10 15 19 280
172 2 2 0 10 63 64 294
173 2 2 0 10 160 175 324
174 2 2 0 10 172 176 202
175 2 2 0 10 28 29 137
176 2 2 0 10 136 248 305
177 2 2 0 10 183 190 285
178 2 2 0 10 25 26 167
179 2 2 0 10 137 29 217
180 2 2 0 10 61 113 149
181 2 2 0 10 149 151 203
182 2 2 0 10 257 148 258
183 2 2 0 10 87 88 168
184 2 2 0 10 19 142 280
185 2 2 0 10 203 151 299
186 2 2 0 10 70 71 260
187 2 2 0 10 217 225 297
188 2 2 0 10 2 77 172
189 2 2 0 10 258 148 260
190 2 2 0 10 119 57 219
191 2 2 0 10 53 54 195
192 2 2 0 10 125 33 210
193 2 2 0 10 27 28 192
194 2 2 0 10 68 69 277
195 2 2 0 10 104 206 326
196 2 2 0 10 202 176 256
197 2 2 0 10 137 217 297
198 2 2 0 10 103 104 214
199 2 2 0 10 213 193 292
200 2 2 0 10 112 133 244
201 2 2 0 10 229 145 352
202 2 2 0 10 225 125 333
203 2 2 0 10 158 215 338
204 2 2 0 10 83 84 226
205 2 2 0 10 263 115 320
206 2 2 0 10 190 230 231
207 2 2 0 10 42 15 280
208 2 2 0 10 81 145 229
209 2 2 0 10 241 287 289
210 2 2 0 10 37 139 218
211 2 2 0 10 14 201 232
212 2 2 0 10 21 22 223
213 2 2 0 10 39 40 213
214 2 2 0 10 32 33 125
215 2 2 0 10 56 119 224
216 2 2 0 10 256 176 258
217 2 2 0 10 282 281 291
218 2 2 0 10 223 205 312
219 2 2 0 10 145 240 352
220 2 2 0 10 186 188 243
221 2 2 0 10 22 23 205
222 2 2 0 10 193 41 194
223 2 2 0 10 143 218 293
224 2 2 0 10 125 311 333
225 2 2 0 10 90 91 289
226 2 2 0 10 152 155 156
227 2 2 0 10 20 267 325
228 2 2 0 10 114 109 227
229 2 2 0 10 158 155 215
230 2 2 0 10 204 203 299
231 2 2 0 10 50 51 216
232 2 2 0 10 40 193 213
233 2 2 0 10 40 41 193
234 2 2 0 10 152 153 155
235 2 2 0 10 115 263 316
236 2 2 0 10 168 88 307
237 2 2 0 10 267 191 325
238 2 2 0 10 165 222 239
239 2 2 0 10 24 166 238
240 2 2 0 10 43 129 201
241 2 2 0 10 121 111 244
242 2 2 0 10 223 265 266
243 2 2 0 10 124 230 270
244 2 2 0 10 136 94 247
245 2 2 0 10 215 153 341
246 2 2 0 10 71 132 260
247 2 2 0 10 31 32 225
248 2 2 0 10 148 70 260
249 2 2 0 10 17 31 306
250 2 2 0 10 35 18 318
251 2 2 0 10 258 176 335
252 2 2 0 10 160 162 175
253 2 2 0 10 33 34 210
254 2 2 0 10 218 139 342
255 2 2 0 10 138 68 277
256 2 2 0 10 210 246 300
257 2 2 0 10 124 76 230
258 2 2 0 10 85 86 343
259 2 2 0 10 337 215 341
260 2 2 0 10 80 81 229
261 2 2 0 10 136 344 345
262 2 2 0 10 185 183 285
263 2 2 0 10 34 35 143
264 2 2 0 10 57 58 219
265 2 2 0 10 41 42 194
266 2 2 0 10 125 210 300
267 2 2 0 10 265 223 313
268 2 2 0 10 237 297 339
269 2 2 0 10 275 276 323
270 2 2 0 10 297 225 333
271 2 2 0 10 199 317 349
272 2 2 0 10 274 209 320
273 2 2 0 10 234 85 343
274 2 2 0 10 92 93 348
275 2 2 0 10 29 30 217
276 2 2 0 10 106 123 314
277 2 2 0 10 276 321 326
278 2 2 0 10 55 56 224
279 2 2 0 10 228 80 229
280 2 2 0 10 69 148 277
281 2 2 0 10 65 66 222
282 2 2 0 10 22 205 223
283 2 2 0 10 230 190 270
284 2 2 0 10 278 286 332
285 2 2 0 10 109 110 227
286 2 2 0 10 105 106 314
287 2 2 0 10 93 345 348
288 2 2 0 10 297 164 339
289 2 2 0 10 166 209 275
290 2 2 0 10 312 206 313
291 2 2 0 10 30 17 306
292 2 2 0 10 313 206 329
293 2 2 0 10 79 80 228
294 2 2 0 10 18 36 318
295 2 2 0 10 155 153 215
296 2 2 0 10 280 142 281
297 2 2 0 10 113 177 341
298 2 2 0 10 145 82 239
299 2 2 0 10 127 288 331
300 2 2 0 10 278 126 286
301 2 2 0 10 283 158 338
302 2 2 0 10 156 155 157
303 2 2 0 10 20 21 267
304 2 2 0 10 23 16 238
305 2 2 0 10 205 238 323
306 2 2 0 10 209 263 320
307 2 2 0 10 273 213 308
308 2 2 0 10 16 24 238
309 2 2 0 10 194 42 280
310 2 2 0 10 205 23 238
311 2 2 0 10 25 167 334
312 2 2 0 10 75 76 124
313 2 2 0 10 45 128 249
314 2 2 0 10 49 131 253
315 2 2 0 10 256 258 260
316 2 2 0 10 64 65 165
317 2 2 0 10 132 256 260
318 2 2 0 10 225 217 306
319 2 2 0 10 198 199 319
320 2 2 0 10 44 45 249
321 2 2 0 10 36 37 218
322 2 2 0 10 273 147 340
323 2 2 0 10 174 179 180
324 2 2 0 10 282 233 327
325 2 2 0 10 110 111 121
326 2 2 0 10 174 178 179
327 2 2 0 10 73 74 126
328 2 2 0 10 71 72 132
329 2 2 0 10 69 70 148
330 2 2 0 10 67 68 138
331 2 2 0 10 84 85 140
332 2 2 0 10 111 112 244
333 2 2 0 10 133 173 174
334 2 2 0 10 84 140 226
335 2 2 0 10 174 173 178
336 2 2 0 10 82 83 239
337 2 2 0 10 78 79 135
338 2 2 0 10 112 2 133
339 2 2 0 10 81 82 145
340 2 2 0 10 135 79 228
341 2 2 0 10 165 65 222
342 2 2 0 10 43 44 129
343 2 2 0 10 133 2 172
344 2 2 0 10 176 77 335
345 2 2 0 10 173 172 202
346 2 2 0 10 189 284 291
347 2 2 0 10 133 172 173
348 2 2 0 10 107 108 259
349 2 2 0 10 48 49 253
350 2 2 0 10 243 188 264
351 2 2 0 10 58 59 118
352 2 2 0 10 45 46 128
353 2 2 0 10 47 48 130
354 2 2 0 10 49 50 131
355 2 2 0 10 56 57 119
356 2 2 0 10 54 55 120
357 2 2 0 10 61 62 113
358 2 2 0 10 51 52 146
359 2 2 0 10 290 127 331
360 2 2 0 10 60 61 149
361 2 2 0 10 303 250 328
362 2 2 0 10 120 55 224
363 2 2 0 10 300 163 311
364 2 2 0 10 180 179 181
365 2 2 0 10 52 53 134
366 2 2 0 10 165 226 294
367 2 2 0 10 51 146 216
368 2 2 0 10 281 142 291
369 2 2 0 10 89 90 288
370 2 2 0 10 58 118 219
371 2 2 0 10 135 228 257
372 2 2 0 10 106 107 123
373 2 2 0 10 94 95 247
374 2 2 0 10 102 103 116
375 2 2 0 10 134 53 195
376 2 2 0 10 95 96 122
377 2 2 0 10 130 48 253
378 2 2 0 10 59 60 203
379 2 2 0 10 62 63 177
380 2 2 0 10 99 100 115
381 2 2 0 10 101 102 252
382 2 2 0 10 108 109 114
383 2 2 0 10 91 92 141
384 2 2 0 10 86 87 117
385 2 2 0 10 97 98 144
386 2 2 0 10 126 74 261
387 2 2 0 10 93 94 136
388 2 2 0 10 312 276 326
389 2 2 0 10 231 14 232
390 2 2 0 10 116 103 214
391 2 2 0 10 95 122 247
392 2 2 0 10 74 75 261
393 2 2 0 10 129 44 249
394 2 2 0 10 117 87 168
395 2 2 0 10 123 107 259
396 2 2 0 10 135 257 258
397 2 2 0 10 177 63 208
398 2 2 0 10 93 136 345
399 2 2 0 10 102 116 252
400 2 2 0 10 208 294 330
401 2 2 0 10 157 155 158
402 2 2 0 10 275 274 321
403 2 2 0 10 108 114 259
404 2 2 0 10 175 200 317
405 2 2 0 10 209 274 275
406 2 2 0 10 134 195 207
407 2 2 0 10 76 14 230
408 2 2 0 10 14 43 201
409 2 2 0 10 346 141 348
410 2 2 0 10 345 346 348
411 2 2 0 10 288 90 289
412 2 2 0 10 188 187 267
413 2 2 0 10 156 157 163
414 2 2 0 10 88 89 127
415 2 2 0 10 288 287 331
416 2 2 0 10 110 121 227
417 2 2 0 10 190 231 285
418 2 2 0 10 230 14 231
419 2 2 0 10 257 228 296
420 2 2 0 10 180 181 182
421 2 2 0 10 123 264 265
422 2 2 0 10 75 124 261
423 2 2 0 10 241 192 287
424 2 2 0 10 121 244 322
425 2 2 0 10 140 85 234
426 2 2 0 10 77 78 335
427 2 2 0 10 171 234 343
428 2 2 0 10 167 235 305
429 2 2 0 10 195 120 196
430 2 2 0 10 181 179 270
431 2 2 0 10 206 105 329
432 2 2 0 10 100 101 269
433 2 2 0 10 178 173 286
434 2 2 0 10 218 143 318
435 2 2 0 10 279 220 317
436 2 2 0 10 184 186 242
437 2 2 0 10 190 181 270
438 2 2 0 10 317 200 349
439 2 2 0 10 265 264 266
440 2 2 0 10 212 268 340
441 2 2 0 10 46 47 271
442 2 2 0 10 242 186 243
443 2 2 0 10 73 126 278
444 2 2 0 10 236 137 237
445 2 2 0 10 115 100 269
446 2 2 0 10 72 73 278
447 2 2 0 10 26 27 347
448 2 2 0 10 277 257 296
449 2 2 0 10 147 134 207
450 2 2 0 10 344 235 346
451 2 2 0 10 245 303 328
452 2 2 0 10 213 292 308
453 2 2 0 10 47 130 271
454 2 2 0 10 163 157 164
455 2 2 0 10 175 162 200
456 2 2 0 10 246 143 293
457 2 2 0 10 166 275 323
458 2 2 0 10 128 46 271
459 2 2 0 10 31 225 306
460 2 2 0 10 101 252 269
461 2 2 0 10 192 236 290
462 2 2 0 10 118 203 204
463 2 2 0 10 284 282 291
464 2 2 0 10 105 314 329
465 2 2 0 10 132 72 278
466 2 2 0 10 130 251 271
467 2 2 0 10 194 280 281
468 2 2 0 10 263 255 316
469 2 2 0 10 205 276 312
470 2 2 0 10 148 257 277
471 2 2 0 10 234 171 336
472 2 2 0 10 236 237 295
473 2 2 0 10 124 270 309
474 2 2 0 10 217 30 306
475 2 2 0 10 264 123 350
476 2 2 0 10 182 302 322
477 2 2 0 10 143 35 318
478 2 2 0 10 199 197 279
479 2 2 0 10 146 134 147
480 2 2 0 10 238 166 323
481 2 2 0 10 187 191 267
482 2 2 0 10 135 258 335
483 2 2 0 10 199 279 317
484 2 2 0 10 262 167 305
485 2 2 0 10 319 199 349
486 2 2 0 10 184 242 302
487 2 2 0 10 302 121 322
488 2 2 0 10 189 185 285
489 2 2 0 10 286 202 332
490 2 2 0 10 136 305 344
491 2 2 0 10 270 179 309
492 2 2 0 10 183 181 190
493 2 2 0 10 173 202 286
494 2 2 0 10 149 113 150
495 2 2 0 10 216 146 273
496 2 2 0 10 228 229 296
497 2 2 0 10 96 97 301
498 2 2 0 10 242 227 302
499 2 2 0 10 117 171 343
500 2 2 0 10 64 165 294
501 2 2 0 10 104 105 206
502 2 2 0 10 268 273 340
503 2 2 0 10 220 221 317
504 2 2 0 10 243 264 350
505 2 2 0 10 303 245 304
506 2 2 0 10 281 282 327
507 2 2 0 10 36 218 318
508 2 2 0 10 154 159 160
509 2 2 0 10 153 113 341
510 2 2 0 10 97 144 301
511 2 2 0 10 232 201 233
512 2 2 0 10 276 275 321
513 2 2 0 10 226 140 330
514 2 2 0 10 114 227 242
515 2 2 0 10 244 180 322
516 2 2 0 10 154 160 299
517 2 2 0 10 131 216 272
518 2 2 0 10 193 245 328
519 2 2 0 10 262 255 263
520 2 2 0 10 98 99 315
521 2 2 0 10 261 124 309
522 2 2 0 10 187 185 189
523 2 2 0 10 241 346 347
524 2 2 0 10 276 205 323
525 2 2 0 10 117 169 171
526 2 2 0 10 160 161 162
527 2 2 0 10 219 118 221
528 2 2 0 10 144 98 315
529 2 2 0 10 21 266 267
530 2 2 0 10 209 166 334
531 2 2 0 10 122 96 301
532 2 2 0 10 182 181 183
533 2 2 0 10 261 309 353
534 2 2 0 10 240 138 352
535 2 2 0 10 245 194 327
536 2 2 0 10 138 277 296
537 2 2 0 10 179 178 309
538 2 2 0 10 182 183 184
539 2 2 0 10 227 121 302
540 2 2 0 10 180 182 322
541 2 2 0 10 211 208 298
542 2 2 0 10 197 120 224
543 2 2 0 10 309 178 353
544 2 2 0 10 88 127 307
545 2 2 0 10 287 192 290
546 2 2 0 10 99 115 315
547 2 2 0 10 160 159 161
548 2 2 0 10 146 147 273
549 2 2 0 10 201 129 304
550 2 2 0 10 150 113 153
551 2 2 0 10 170 168 307
552 2 2 0 10 177 208 211
553 2 2 0 10 167 262 351
554 2 2 0 10 162 161 246
555 2 2 0 10 202 256 332
556 2 2 0 10 196 198 207
557 2 2 0 10 256 132 332
558 2 2 0 10 184 185 186
559 2 2 0 10 337 171 338
560 2 2 0 10 194 281 327
561 2 2 0 10 154 156 159
562 2 2 0 10 151 152 154
563 2 2 0 10 158 283 295
564 2 2 0 10 248 262 305
565 2 2 0 10 294 226 330
566 2 2 0 10 140 234 298
567 2 2 0 10 119 219 220
568 2 2 0 10 221 175 317
569 2 2 0 10 251 130 254
570 2 2 0 10 251 128 271
571 2 2 0 10 207 198 212
572 2 2 0 10 182 184 302
573 2 2 0 10 159 156 163
574 2 2 0 10 178 286 353
575 2 2 0 10 154 152 156
576 2 2 0 10 114 242 243
577 2 2 0 10 171 169 338
578 2 2 0 10 198 197 199
579 2 2 0 10 293 218 342
580 2 2 0 10 141 92 348
581 2 2 0 10 151 150 152
582 2 2 0 10 78 135 335
583 2 2 0 10 164 157 339
584 2 2 0 10 346 235 347
585 2 2 0 10 224 119 279
586 2 2 0 10 118 204 221
587 2 2 0 10 200 162 293
588 2 2 0 10 163 164 311
589 2 2 0 10 184 183 185
590 2 2 0 10 265 313 329
591 2 2 0 10 169 170 283
592 2 2 0 10 221 204 324
593 2 2 0 10 158 295 339
594 2 2 0 10 144 255 301
595 2 2 0 10 186 187 188
596 2 2 0 10 86 117 343
597 2 2 0 10 149 150 151
598 2 2 0 10 151 154 299
599 2 2 0 10 125 300 311
600 2 2 0 10 255 122 301
601 2 2 0 10 299 160 324
602 2 2 0 10 187 189 191
603 2 2 0 10 126 261 353
604 2 2 0 10 114 243 259
605 2 2 0 10 298 234 336
606 2 2 0 10 162 246 293
607 2 2 0 10 315 115 316
608 2 2 0 10 233 201 304
609 2 2 0 10 345 344 346
610 2 2 0 10 191 189 291
611 2 2 0 10 186 185 187
612 2 2 0 10 336 171 337
613 2 2 0 10 132 278 332
614 2 2 0 10 169 283 338
615 2 2 0 10 253 131 310
616 2 2 0 10 211 298 336
617 2 2 0 10 212 198 319
618 2 2 0 10 209 334 351
619 2 2 0 10 284 189 285
620 2 2 0 10 175 221 324
621 2 2 0 10 266 188 267
622 2 2 0 10 251 254 292
623 2 2 0 10 211 337 341
624 2 2 0 10 140 298 330
625 2 2 0 10 255 144 316
626 2 2 0 10 204 299 324
627 2 2 0 10 286 126 353
628 2 2 0 10 248 255 262
629 2 2 0 10 196 197 198
630 2 2 0 10 249 128 250
631 2 2 0 10 247 122 248
632 2 2 0 10 287 290 331
633 2 2 0 10 138 296 352
634 2 2 0 10 304 245 327
635 2 2 0 10 157 158 339
636 2 2 0 10 117 168 169
637 2 2 0 10 129 249 303
638 2 2 0 10 252 116 274
639 2 2 0 10 130 253 254
640 2 2 0 10 169 168 170
641 2 2 0 10 147 207 340
642 2 2 0 10 231 232 284
643 2 2 0 10 200 293 342
644 2 2 0 10 314 265 329
645 2 2 0 10 116 214 321
646 2 2 0 10 220 219 221
647 2 2 0 10 248 122 255
648 2 2 0 10 263 209 351
649 2 2 0 10 298 208 330
650 2 2 0 10 144 315 316
651 2 2 0 10 250 128 251
652 2 2 0 10 264 188 266
653 2 2 0 10 296 229 352
654 2 2 0 10 164 297 333
655 2 2 0 10 269 252 320
656 2 2 0 10 177 211 341
657 2 2 0 10 196 120 197
658 2 2 0 10 334 167 351
659 2 2 0 10 295 237 339
660 2 2 0 10 291 142 325
661 2 2 0 10 292 193 328
662 2 2 0 10 123 259 350
663 2 2 0 10 27 241 347
664 2 2 0 10 231 284 285
665 2 2 0 10 215 337 338
666 2 2 0 10 200 342 349
667 2 2 0 10 292 254 308
668 2 2 0 10 235 26 347
669 2 2 0 10 139 319 349
670 2 2 0 10 207 212 340
671 2 2 0 10 311 164 333
672 2 2 0 10 272 216 273
673 2 2 0 10 211 336 337
674 2 2 0 10 195 196 207
675 2 2 0 10 262 263 351
676 2 2 0 10 233 304 327
677 2 2 0 10 250 251 328
678 2 2 0 10 342 139 349
679 2 2 0 10 191 291 325
680 2 2 0 10 232 233 282
681 2 2 0 10 197 224 279
682 2 2 0 10 129 303 304
683 2 2 0 10 308 254 310
684 2 2 0 10 131 272 310
685 2 2 0 10 251 292 328
686 2 2 0 10 119 220 279
687 2 2 0 10 232 282 284
688 2 2 0 10 272 308 310
689 2 2 0 10 223 312 313
690 2 2 0 10 259 243 350
691 2 2 0 10 254 253 310
692 2 2 0 10 249 250 303
693 2 2 0 10 305 235 344
694 2 2 0 10 252 274 320
695 2 2 0 10 274 116 321
696 2 2 0 10 21 223 266
697 2 2 0 10 212 38 268
698 2 2 0 10 123 265 314
699 2 2 0 10 136 247 248
700 2 2 0 10 289 141 346
701 2 2 0 10 321 214 326
702 2 2 0 10 287 288 289
$EndElements
