$MeshFormat
2.2 0 8
$EndMeshFormat
$Nodes
333
1 0 0 0
2 0 63.5 0
3 7.874 63.5 0
4 22.25 57.57847 0
5 55.8766 24.051 0
6 64.83803 20.32 0
7 68.14964999999999 20.762 0
8 185.039 52.322 0
9 185.039 0 0
10 64.83803 0 0
11 0 8.835727359982579 0
12 0 17.67145471995559 0
13 0 26.50718207992768 0
14 0 35.34290943992265 0
15 0 44.17863679995132 0
16 0 53.01436415997359 0
17 0 61.85009152 0
18 0 62.2084096 0
19 0 62.507008 0
20 0 62.75584 0
21 0 62.9632 0
22 0 63.136 0
23 0 63.28 0
24 0 63.4 0
25 15.64279676159128 61.95626685145609 0
26 28.97531999998818 50.87297600001179 0
27 35.70063999995609 44.16748200004378 0
28 42.4259599999583 37.46198800004157 0
29 49.15127999997777 30.75649400002217 0
30 77.14113846152546 23.1896923076888 0
31 86.13262692304427 25.6173846153758 0
32 95.12411538456459 28.04507692306321 0
33 104.1156038460798 30.47276923074925 0
34 113.1070923075879 32.90046153843334 0
35 122.0985807691026 35.32815384611924 0
36 131.0900692306341 37.75584615380967 0
37 140.0815576921829 40.18353846150477 0
38 149.0730461537527 42.61123076920555 0
39 158.0645346153117 45.0389230769034 0
40 167.0560230768712 47.46661538460137 0
41 176.0475115384408 49.89430769230209 0
42 185.039 52.222 0
43 185.039 52.102 0
44 185.039 51.95800000000001 0
45 185.039 51.7852 0
46 185.039 51.57784 0
47 185.039 51.329008 0
48 185.039 51.03040960000001 0
49 185.039 50.67209152 0
50 185.039 42.22674293335147 0
51 185.039 33.78139434671576 0
52 185.039 25.33604576007241 0
53 185.039 16.89069717338069 0
54 185.039 8.445348586693477 0
55 175.7927715384726 0 0
56 166.5465430769602 0 0
57 157.3003146154487 0 0
58 148.0540861539461 0 0
59 138.8078576924311 0 0
60 129.5616292309247 0 0
61 120.3154007693862 0 0
62 111.06917230782 0 0
63 101.8229438462548 0 0
64 92.57671538469309 0 0
65 83.33048692312686 0 0
66 74.08425846156622 0 0
67 55.57545428573235 0 0
68 46.31287857147301 0 0
69 37.05030285721504 0 0
70 27.7877271429331 0 0
71 18.52515142862241 0 0
72 9.262575714310493 0 0
73 15.60407731002945 61.86198597694727 0
74 15.55761396815526 61.7488489275367 0
75 15.50185795790623 61.613084468244 0
76 15.43495074560739 61.45016711709278 0
77 15.35466209084878 61.2546662957113 0
78 15.25831570513846 61.02006531005352 0
79 15.14270004228607 60.73854412726421 0
80 15.0039612468632 60.40071870791702 0
81 28.90471377891102 50.8021610189329 0
82 28.81998631361844 50.71718304163823 0
83 28.71831335526733 50.61520946888462 0
84 28.596305805246 50.4928411815803 0
85 28.44989674522041 50.34599923681511 0
86 28.27420587318971 50.16978890309689 0
87 28.06337682675285 49.95833650263501 0
88 27.81038197102863 49.70459362208076 0
89 35.63003377887893 44.09666701896489 0
90 35.54530631358634 44.01168904167022 0
91 35.44363335523524 43.90971546891662 0
92 35.32162580521391 43.7873471816123 0
93 35.17521674518832 43.6405052368471 0
94 34.99952587315762 43.46429490312888 0
95 34.78869682672076 43.25284250266701 0
96 34.53570197099654 42.99909962211276 0
97 42.35535377888115 37.39117301896268 0
98 42.27062631358856 37.30619504166801 0
99 42.16895335523746 37.2042214689144 0
100 42.04694580521613 37.08185318161009 0
101 41.90053674519054 36.93501123684489 0
102 41.72484587315983 36.75880090312667 0
103 41.51401682672297 36.5473485026648 0
104 41.26102197099875 36.29360562211055 0
105 49.08067377890061 30.68567901894327 0
106 48.99594631360802 30.60070104164861 0
107 48.89427335525692 30.498727468895 0
108 48.77226580523559 30.37635918159068 0
109 48.62585674521 30.22951723682549 0
110 48.45016587317929 30.05330690310726 0
111 48.23933682674244 29.84185450264539 0
112 47.98634197101822 29.58811162209114 0
113 77.16720495091256 23.09314937355568 0
114 77.1984847381771 22.97729785259594 0
115 77.23602048289455 22.83827602744425 0
116 77.28106337655547 22.67144983726222 0
117 77.33511484894858 22.47125840904379 0
118 77.39997661582031 22.23102869518166 0
119 77.47781073606639 21.94275303854712 0
120 77.57121168036169 21.59682225058566 0
121 86.15869341243138 25.52084168124268 0
122 86.18997319969591 25.40499016028294 0
123 86.22750894441336 25.26596833513125 0
124 86.27255183807428 25.09914214494922 0
125 86.32660331046739 24.89895071673079 0
126 86.39146507733912 24.65872100286866 0
127 86.4692991975852 24.37044534623412 0
128 86.5627001418805 24.02451455827266 0
129 95.15018187395169 27.94853398893009 0
130 95.18146166121623 27.83268246797035 0
131 95.21899740593368 27.69366064281866 0
132 95.2640402995946 27.52683445263663 0
133 95.31809177198771 27.3266430244182 0
134 95.38295353885944 27.08641331055607 0
135 95.46078765910552 26.79813765392153 0
136 95.55418860340082 26.45220686596007 0
137 104.1416703354669 30.37622629661614 0
138 104.1729501227315 30.26037477565639 0
139 104.2104858674489 30.1213529505047 0
140 104.2555287611098 29.95452676032267 0
141 104.309580233503 29.75433533210424 0
142 104.3744420003747 29.51410561824212 0
143 104.4522761206208 29.22582996160757 0
144 104.5456770649161 28.87989917364612 0
145 113.133158796975 32.80391860430022 0
146 113.1644385842395 32.68806708334048 0
147 113.201974328957 32.54904525818879 0
148 113.2470172226179 32.38221906800676 0
149 113.301068695011 32.18202763978832 0
150 113.3659304618827 31.9417979259262 0
151 113.4437645821288 31.65352226929166 0
152 113.5371655264241 31.3075914813302 0
153 122.1246472584897 35.23161091198612 0
154 122.1559270457542 35.11575939102637 0
155 122.1934627904717 34.97673756587469 0
156 122.2385056841326 34.80991137569266 0
157 122.2925571565257 34.60971994747422 0
158 122.3574189233974 34.3694902336121 0
159 122.4352530436435 34.08121457697755 0
160 122.5286539879388 33.7352837890161 0
161 131.1161357200212 37.65930321967655 0
162 131.1474155072858 37.54345169871681 0
163 131.1849512520032 37.40442987356512 0
164 131.2299941456641 37.23760368338309 0
165 131.2840456180572 37.03741225516465 0
166 131.348907384929 36.79718254130253 0
167 131.4267415051751 36.50890688466799 0
168 131.5201424494704 36.16297609670654 0
169 140.10762418157 40.08699552737165 0
170 140.1389039688345 39.9711440064119 0
171 140.176439713552 39.83212218126022 0
172 140.2214826072129 39.66529599107819 0
173 140.275534079606 39.46510456285975 0
174 140.3403958464777 39.22487484899763 0
175 140.4182299667238 38.93659919236308 0
176 140.5116309110191 38.59066840440163 0
177 149.0991126431398 42.51468783507243 0
178 149.1303924304044 42.39883631411269 0
179 149.1679281751218 42.259814488961 0
180 149.2129710687827 42.09298829877897 0
181 149.2670225411758 41.89279687056053 0
182 149.3318843080476 41.65256715669841 0
183 149.4097184282937 41.36429150006386 0
184 149.503119372589 41.01836071210241 0
185 158.0906011046989 44.94238014277028 0
186 158.1218808919634 44.82652862181054 0
187 158.1594166366808 44.68750679665885 0
188 158.2044595303418 44.52068060647682 0
189 158.2585110027348 44.32048917825838 0
190 158.3233727696066 44.08025946439626 0
191 158.4012068898527 43.79198380776172 0
192 158.494607834148 43.44605301980027 0
193 167.0820895662583 47.37007245046825 0
194 167.1133693535228 47.25422092950851 0
195 167.1509050982402 47.11519910435682 0
196 167.1959479919012 46.94837291417479 0
197 167.2499994642943 46.74818148595635 0
198 167.314861231166 46.50795177209423 0
199 167.3926953514121 46.21967611545968 0
200 167.4860962957074 45.87374532749823 0
201 176.0735780278279 49.79776475816897 0
202 176.1048578150924 49.68191323720923 0
203 176.1423935598099 49.54289141205754 0
204 176.1874364534708 49.37606522187551 0
205 176.2414879258639 49.17587379365708 0
206 176.3063496927357 48.93564407979495 0
207 176.3841838129817 48.64736842316041 0
208 176.477584757277 48.30143763519896 0
209 7.864209668323577 63.39999519548838 0
210 7.852461270311868 63.27998943007444 0
211 7.838363192697819 63.13598251157772 0
212 7.821445499560959 62.96317420938164 0
213 7.801144267796728 62.75580424674635 0
214 7.77678278967965 62.506960291584 0
215 7.747549015939157 62.20834754538918 0
216 7.712468487450565 61.85001224995541 0
217 55.81987559637245 23.96631687095724 0
218 55.75180631201939 23.86469711610593 0
219 55.67012317079571 23.74275341028436 0
220 55.5721034013273 23.59642096329847 0
221 55.45447967796521 23.42082202691541 0
222 55.3133312099307 23.21010330325573 0
223 55.14395304828929 22.95724083486412 0
224 54.9406992543196 22.65380587279418 0
225 22.18649305885732 57.50058366900407 0
226 22.11028472948609 57.40712007180895 0
227 22.01883473424063 57.29496375517482 0
228 21.90909473994607 57.16037617521385 0
229 21.7774067467926 56.99887107926069 0
230 21.61938115500843 56.8050649641169 0
231 21.42975044486743 56.57249762594435 0
232 21.20219359269823 56.29341682013729 0
233 64.8243710889035 20.21732682893941 0
234 64.80798039558769 20.09411902366671 0
235 64.78831156360873 19.94626965733946 0
236 64.76470896523396 19.76885041774677 0
237 64.73638584718425 19.55594733023554 0
238 64.70239810552461 19.30046362522206 0
239 64.66161281553302 18.99388317920588 0
240 64.61267046754313 18.62598664398647 0
241 68.16935055625842 20.66374049431268 0
242 68.19299122376854 20.54582908748791 0
243 68.22136002478068 20.40433539929817 0
244 68.25540258599524 20.23454297347049 0
245 68.29625365945272 20.03079206247727 0
246 68.34527494760169 19.78629096928541 0
247 68.40410049338047 19.49288965745518 0
248 68.47469114831499 19.1408080832589 0
249 8.143449147323762 22.25804800718796 0
250 177.3712043906792 21.68286490468236 0
251 152.0151380852536 8.196898219289171 0
252 38.18885767784459 26.61838445256484 0
253 134.4880500295277 8.719048684807738 0
254 156.1217788700003 34.45091035097818 0
255 23.71678687922384 41.37067177880176 0
256 23.80225256553059 7.864889437435093 0
257 114.9467577477158 7.131391866284475 0
258 66.55761815652467 15.87391918297762 0
259 62.69827537091429 14.75404406925808 0
260 138.194301848873 29.50670567660959 0
261 14.54639861557567 52.97976771881755 0
262 40.82835075684199 7.872377184999988 0
263 102.0981602535409 19.89615107804149 0
264 7.850856239177689 38.75185037689532 0
265 120.2743226833009 24.42814260249587 0
266 87.11884217814455 8.435351051119085 0
267 171.5374906948289 8.244276713876642 0
268 71.58785695518078 15.05623131733359 0
269 66.84034108436711 11.69117110731418 0
270 61.08624189229379 9.863478498642728 0
271 173.3449933633733 38.19277664729947 0
272 78.93052242090577 13.04696408399688 0
273 73.01088633402671 8.527262729064994 0
274 56.99822568486432 14.94207073166247 0
275 55.17479528246906 8.367630042512337 0
276 48.82540387552015 14.25164485973996 0
277 39.89861361582464 17.10264487424492 0
278 32.50074851246721 12.52959013147228 0
279 25.25916952158655 17.49474764119162 0
280 16.09565439971723 15.25594318917602 0
281 18.31596348461058 23.95927859932626 0
282 27.41553123192831 26.21522391804583 0
283 12.65920178955336 30.83438700210347 0
284 164.9790001555171 36.73743955886354 0
285 162.7886734861131 28.01824472341159 0
286 153.8772697571785 25.51837859528823 0
287 160.3056014861762 19.66942246157896 0
288 171.0669577594121 29.31906837079491 0
289 161.9043084838498 7.29443128124546 0
290 147.1911552976357 31.89936860493418 0
291 144.8833786160903 23.02141773960936 0
292 135.9617544874864 20.23363072360176 0
293 143.3791439397779 13.87268661882499 0
294 127.1468959398197 16.05125919943777 0
295 129.2710118994816 26.6863330146446 0
296 111.2277876433464 22.35395901446699 0
297 93.06674605752609 16.12256714547741 0
298 100.6976169672909 10.48738165840226 0
299 7.5564592819051 48.10320536801575 0
300 14.97365090553417 44.57750595159187 0
301 7.266879670906366 12.89560115898819 0
302 31.48267565852294 34.20897160162463 0
303 168.9433403108594 21.72436433711844 0
304 108.6355589684756 13.49897454506512 0
305 151.7958021271691 17.04054810471237 0
306 21.52247174530596 32.29000422003084 0
307 178.4637389846412 13.0040171466363 0
308 118.2510713175318 15.81290438499238 0
309 124.7250065242588 7.345234663351656 0
310 79.29499926355402 6.001915572836192 0
311 13.54187842195314 7.030386786680581 0
312 20.62673298932597 49.10804804673774 0
313 178.6933177082198 31.05270311159975 0
314 166.0765683303478 14.38390479774761 0
315 59.81246769441033 17.7439768294253 0
316 8.963857526358906 55.26961364093586 0
317 32.65258411193026 19.9921182035039 0
318 143.3488551801873 6.157726704584379 0
319 85.2137106345609 16.65323807840596 0
320 15.70083606870952 37.25910160541471 0
321 107.4344099675114 6.223549613950371 0
322 45.96798327890544 22.04291833628701 0
323 67.65419956673276 5.290407987136144 0
324 5.449496144613311 30.85719941199595 0
325 179.0634513297527 5.958245215408943 0
326 6.298756752631748 6.165886934484197 0
327 157.3596252748526 13.00967023276727 0
328 179.718779165774 38.71101093483308 0
329 94.57770059190764 6.493581839303017 0
330 60.67745790185148 4.474210608052859 0
331 172.6302374665299 16.07816926311064 0
332 32.40618916687178 5.203387045725465 0
333 49.34337655440731 6.098330417450457 0
$EndNodes
$Elements
408
1 2 2 1 1 17 216 16
2 2 2 1 1 208 49 50
3 2 2 1 1 248 120 268
4 2 2 1 1 292 253 294
5 2 2 1 1 253 292 293
6 2 2 1 1 294 265 295
7 2 2 1 1 280 249 281
8 2 2 1 1 258 268 269
9 2 2 1 1 292 294 295
10 2 2 1 1 249 280 301
11 2 2 1 1 300 255 320
12 2 2 1 1 281 249 283
13 2 2 1 1 255 300 312
14 2 2 1 1 251 293 305
15 2 2 1 1 288 250 303
16 2 2 1 1 208 50 328
17 2 2 1 1 255 302 306
18 2 2 1 1 293 251 318
19 2 2 1 1 270 269 323
20 2 2 1 1 252 282 302
21 2 2 1 1 250 288 313
22 2 2 1 1 265 294 308
23 2 2 1 1 302 282 306
24 2 2 1 1 313 271 328
25 2 2 1 1 288 271 313
26 2 2 1 1 272 266 310
27 2 2 1 1 266 297 329
28 2 2 1 1 257 308 309
29 2 2 1 1 282 252 317
30 2 2 1 1 276 262 277
31 2 2 1 1 271 208 328
32 2 2 1 1 278 256 279
33 2 2 1 1 304 296 308
34 2 2 1 1 308 294 309
35 2 2 1 1 266 272 319
36 2 2 1 1 298 63 329
37 2 2 1 1 63 298 321
38 2 2 1 1 297 298 329
39 2 2 1 1 297 266 319
40 2 2 1 1 255 306 320
41 2 2 1 1 256 71 311
42 2 2 1 1 268 272 273
43 2 2 1 1 299 261 300
44 2 2 1 1 257 304 308
45 2 2 1 1 269 268 273
46 2 2 1 1 268 120 272
47 2 2 1 1 279 256 280
48 2 2 1 1 260 291 292
49 2 2 1 1 277 262 278
50 2 2 1 1 284 271 288
51 2 2 1 1 104 252 302
52 2 2 1 1 160 168 295
53 2 2 1 1 294 253 309
54 2 2 1 1 270 323 330
55 2 2 1 1 254 284 285
56 2 2 1 1 260 290 291
57 2 2 1 1 285 284 288
58 2 2 1 1 280 256 311
59 2 2 1 1 216 80 316
60 2 2 1 1 200 208 271
61 2 2 1 1 254 192 284
62 2 2 1 1 176 184 290
63 2 2 1 1 265 160 295
64 2 2 1 1 200 271 284
65 2 2 1 1 168 260 295
66 2 2 1 1 264 283 324
67 2 2 1 1 260 176 290
68 2 2 1 1 88 96 255
69 2 2 1 1 279 280 281
70 2 2 1 1 55 56 267
71 2 2 1 1 292 291 293
72 2 2 1 1 57 251 289
73 2 2 1 1 267 56 289
74 2 2 1 1 260 292 295
75 2 2 1 1 184 254 290
76 2 2 1 1 286 285 287
77 2 2 1 1 70 71 256
78 2 2 1 1 285 288 303
79 2 2 1 1 104 112 252
80 2 2 1 1 192 200 284
81 2 2 1 1 297 263 298
82 2 2 1 1 152 265 296
83 2 2 1 1 264 15 299
84 2 2 1 1 136 263 297
85 2 2 1 1 293 291 305
86 2 2 1 1 263 144 296
87 2 2 1 1 128 136 297
88 2 2 1 1 56 57 289
89 2 2 1 1 136 144 263
90 2 2 1 1 152 160 265
91 2 2 1 1 254 285 286
92 2 2 1 1 168 176 260
93 2 2 1 1 184 192 254
94 2 2 1 1 144 152 296
95 2 2 1 1 253 293 318
96 2 2 1 1 290 286 291
97 2 2 1 1 57 58 251
98 2 2 1 1 59 60 253
99 2 2 1 1 61 62 257
100 2 2 1 1 283 264 320
101 2 2 1 1 64 65 266
102 2 2 1 1 68 69 262
103 2 2 1 1 262 276 333
104 2 2 1 1 256 278 332
105 2 2 1 1 279 281 282
106 2 2 1 1 254 286 290
107 2 2 1 1 273 66 323
108 2 2 1 1 66 273 310
109 2 2 1 1 11 12 301
110 2 2 1 1 14 15 264
111 2 2 1 1 80 261 316
112 2 2 1 1 12 13 249
113 2 2 1 1 15 16 299
114 2 2 1 1 281 283 306
115 2 2 1 1 264 299 300
116 2 2 1 1 96 104 302
117 2 2 1 1 263 296 304
118 2 2 1 1 296 265 308
119 2 2 1 1 12 249 301
120 2 2 1 1 275 67 333
121 2 2 1 1 52 53 250
122 2 2 1 1 286 287 305
123 2 2 1 1 255 96 302
124 2 2 1 1 287 285 303
125 2 2 1 1 88 255 312
126 2 2 1 1 298 263 304
127 2 2 1 1 80 232 261
128 2 2 1 1 272 120 319
129 2 2 1 1 253 60 309
130 2 2 1 1 61 257 309
131 2 2 1 1 291 286 305
132 2 2 1 1 120 128 319
133 2 2 1 1 283 249 324
134 2 2 1 1 53 54 307
135 2 2 1 1 266 65 310
136 2 2 1 1 250 53 307
137 2 2 1 1 67 68 333
138 2 2 1 1 282 281 306
139 2 2 1 1 232 88 312
140 2 2 1 1 299 16 316
141 2 2 1 1 251 58 318
142 2 2 1 1 59 253 318
143 2 2 1 1 252 277 317
144 2 2 1 1 257 62 321
145 2 2 1 1 71 72 311
146 2 2 1 1 278 262 332
147 2 2 1 1 278 279 317
148 2 2 1 1 70 256 332
149 2 2 1 1 273 272 310
150 2 2 1 1 63 64 329
151 2 2 1 1 262 69 332
152 2 2 1 1 304 257 321
153 2 2 1 1 60 61 309
154 2 2 1 1 52 250 313
155 2 2 1 1 277 278 317
156 2 2 1 1 9 55 325
157 2 2 1 1 14 264 324
158 2 2 1 1 249 13 324
159 2 2 1 1 224 274 276
160 2 2 1 1 275 270 330
161 2 2 1 1 54 9 325
162 2 2 1 1 72 1 326
163 2 2 1 1 261 299 316
164 2 2 1 1 277 252 322
165 2 2 1 1 1 11 326
166 2 2 1 1 112 224 322
167 2 2 1 1 301 280 311
168 2 2 1 1 300 261 312
169 2 2 1 1 67 275 330
170 2 2 1 1 65 66 310
171 2 2 1 1 240 248 258
172 2 2 1 1 252 112 322
173 2 2 1 1 66 10 323
174 2 2 1 1 267 289 314
175 2 2 1 1 10 67 330
176 2 2 1 1 51 52 313
177 2 2 1 1 264 300 320
178 2 2 1 1 261 232 312
179 2 2 1 1 314 289 327
180 2 2 1 1 307 267 331
181 2 2 1 1 276 277 322
182 2 2 1 1 276 275 333
183 2 2 1 1 279 282 317
184 2 2 1 1 224 276 322
185 2 2 1 1 240 258 259
186 2 2 1 1 287 314 327
187 2 2 1 1 58 59 318
188 2 2 1 1 128 297 319
189 2 2 1 1 298 304 321
190 2 2 1 1 274 224 315
191 2 2 1 1 55 267 325
192 2 2 1 1 287 303 314
193 2 2 1 1 62 63 321
194 2 2 1 1 259 269 270
195 2 2 1 1 267 314 331
196 2 2 1 1 51 313 328
197 2 2 1 1 289 251 327
198 2 2 1 1 306 283 320
199 2 2 1 1 13 14 324
200 2 2 1 1 274 275 276
201 2 2 1 1 68 262 333
202 2 2 1 1 11 301 326
203 2 2 1 1 305 287 327
204 2 2 1 1 64 266 329
205 2 2 1 1 69 70 332
206 2 2 1 1 259 258 269
207 2 2 1 1 259 270 274
208 2 2 1 1 50 51 328
209 2 2 1 1 267 307 325
210 2 2 1 1 269 273 323
211 2 2 1 1 303 250 331
212 2 2 1 1 274 270 275
213 2 2 1 1 240 259 315
214 2 2 1 1 307 54 325
215 2 2 1 1 251 305 327
216 2 2 1 1 250 307 331
217 2 2 1 1 301 311 326
218 2 2 1 1 311 72 326
219 2 2 1 1 258 248 268
220 2 2 1 1 323 10 330
221 2 2 1 1 314 303 331
222 2 2 1 1 259 274 315
223 2 2 1 1 16 216 316
224 2 2 1 1 224 240 315
225 3 2 1 1 2 3 209 24
226 3 2 1 1 24 209 210 23
227 3 2 1 1 23 210 211 22
228 3 2 1 1 22 211 212 21
229 3 2 1 1 21 212 213 20
230 3 2 1 1 20 213 214 19
231 3 2 1 1 19 214 215 18
232 3 2 1 1 18 215 216 17
233 3 2 1 1 36 37 169 161
234 3 2 1 1 161 169 170 162
235 3 2 1 1 162 170 171 163
236 3 2 1 1 163 171 172 164
237 3 2 1 1 164 172 173 165
238 3 2 1 1 165 173 174 166
239 3 2 1 1 166 174 175 167
240 3 2 1 1 167 175 176 168
241 3 2 1 1 3 25 73 209
242 3 2 1 1 209 73 74 210
243 3 2 1 1 210 74 75 211
244 3 2 1 1 211 75 76 212
245 3 2 1 1 212 76 77 213
246 3 2 1 1 213 77 78 214
247 3 2 1 1 214 78 79 215
248 3 2 1 1 215 79 80 216
249 3 2 1 1 25 4 225 73
250 3 2 1 1 73 225 226 74
251 3 2 1 1 74 226 227 75
252 3 2 1 1 75 227 228 76
253 3 2 1 1 76 228 229 77
254 3 2 1 1 77 229 230 78
255 3 2 1 1 78 230 231 79
256 3 2 1 1 79 231 232 80
257 3 2 1 1 4 26 81 225
258 3 2 1 1 225 81 82 226
259 3 2 1 1 226 82 83 227
260 3 2 1 1 227 83 84 228
261 3 2 1 1 228 84 85 229
262 3 2 1 1 229 85 86 230
263 3 2 1 1 230 86 87 231
264 3 2 1 1 231 87 88 232
265 3 2 1 1 26 27 89 81
266 3 2 1 1 81 89 90 82
267 3 2 1 1 82 90 91 83
268 3 2 1 1 83 91 92 84
269 3 2 1 1 84 92 93 85
270 3 2 1 1 85 93 94 86
271 3 2 1 1 86 94 95 87
272 3 2 1 1 87 95 96 88
273 3 2 1 1 27 28 97 89
274 3 2 1 1 89 97 98 90
275 3 2 1 1 90 98 99 91
276 3 2 1 1 91 99 100 92
277 3 2 1 1 92 100 101 93
278 3 2 1 1 93 101 102 94
279 3 2 1 1 94 102 103 95
280 3 2 1 1 95 103 104 96
281 3 2 1 1 28 29 105 97
282 3 2 1 1 97 105 106 98
283 3 2 1 1 98 106 107 99
284 3 2 1 1 99 107 108 100
285 3 2 1 1 100 108 109 101
286 3 2 1 1 101 109 110 102
287 3 2 1 1 102 110 111 103
288 3 2 1 1 103 111 112 104
289 3 2 1 1 29 5 217 105
290 3 2 1 1 105 217 218 106
291 3 2 1 1 106 218 219 107
292 3 2 1 1 107 219 220 108
293 3 2 1 1 108 220 221 109
294 3 2 1 1 109 221 222 110
295 3 2 1 1 110 222 223 111
296 3 2 1 1 111 223 224 112
297 3 2 1 1 5 6 233 217
298 3 2 1 1 217 233 234 218
299 3 2 1 1 218 234 235 219
300 3 2 1 1 219 235 236 220
301 3 2 1 1 220 236 237 221
302 3 2 1 1 221 237 238 222
303 3 2 1 1 222 238 239 223
304 3 2 1 1 223 239 240 224
305 3 2 1 1 6 7 241 233
306 3 2 1 1 233 241 242 234
307 3 2 1 1 234 242 243 235
308 3 2 1 1 235 243 244 236
309 3 2 1 1 236 244 245 237
310 3 2 1 1 237 245 246 238
311 3 2 1 1 238 246 247 239
312 3 2 1 1 239 247 248 240
313 3 2 1 1 7 30 113 241
314 3 2 1 1 241 113 114 242
315 3 2 1 1 242 114 115 243
316 3 2 1 1 243 115 116 244
317 3 2 1 1 244 116 117 245
318 3 2 1 1 245 117 118 246
319 3 2 1 1 246 118 119 247
320 3 2 1 1 247 119 120 248
321 3 2 1 1 30 31 121 113
322 3 2 1 1 113 121 122 114
323 3 2 1 1 114 122 123 115
324 3 2 1 1 115 123 124 116
325 3 2 1 1 116 124 125 117
326 3 2 1 1 117 125 126 118
327 3 2 1 1 118 126 127 119
328 3 2 1 1 119 127 128 120
329 3 2 1 1 31 32 129 121
330 3 2 1 1 121 129 130 122
331 3 2 1 1 122 130 131 123
332 3 2 1 1 123 131 132 124
333 3 2 1 1 124 132 133 125
334 3 2 1 1 125 133 134 126
335 3 2 1 1 126 134 135 127
336 3 2 1 1 127 135 136 128
337 3 2 1 1 32 33 137 129
338 3 2 1 1 129 137 138 130
339 3 2 1 1 130 138 139 131
340 3 2 1 1 131 139 140 132
341 3 2 1 1 132 140 141 133
342 3 2 1 1 133 141 142 134
343 3 2 1 1 134 142 143 135
344 3 2 1 1 135 143 144 136
345 3 2 1 1 33 34 145 137
346 3 2 1 1 137 145 146 138
347 3 2 1 1 138 146 147 139
348 3 2 1 1 139 147 148 140
349 3 2 1 1 140 148 149 141
350 3 2 1 1 141 149 150 142
351 3 2 1 1 142 150 151 143
352 3 2 1 1 143 151 152 144
353 3 2 1 1 34 35 153 145
354 3 2 1 1 145 153 154 146
355 3 2 1 1 146 154 155 147
356 3 2 1 1 147 155 156 148
357 3 2 1 1 148 156 157 149
358 3 2 1 1 149 157 158 150
359 3 2 1 1 150 158 159 151
360 3 2 1 1 151 159 160 152
361 3 2 1 1 35 36 161 153
362 3 2 1 1 153 161 162 154
363 3 2 1 1 154 162 163 155
364 3 2 1 1 155 163 164 156
365 3 2 1 1 156 164 165 157
366 3 2 1 1 157 165 166 158
367 3 2 1 1 158 166 167 159
368 3 2 1 1 159 167 168 160
369 3 2 1 1 37 38 177 169
370 3 2 1 1 169 177 178 170
371 3 2 1 1 170 178 179 171
372 3 2 1 1 171 179 180 172
373 3 2 1 1 172 180 181 173
374 3 2 1 1 173 181 182 174
375 3 2 1 1 174 182 183 175
376 3 2 1 1 175 183 184 176
377 3 2 1 1 38 39 185 177
378 3 2 1 1 177 185 186 178
379 3 2 1 1 178 186 187 179
380 3 2 1 1 179 187 188 180
381 3 2 1 1 180 188 189 181
382 3 2 1 1 181 189 190 182
383 3 2 1 1 182 190 191 183
384 3 2 1 1 183 191 192 184
385 3 2 1 1 39 40 193 185
386 3 2 1 1 185 193 194 186
387 3 2 1 1 186 194 195 187
388 3 2 1 1 187 195 196 188
389 3 2 1 1 188 196 197 189
390 3 2 1 1 189 197 198 190
391 3 2 1 1 190 198 199 191
392 3 2 1 1 191 199 200 192
393 3 2 1 1 40 41 201 193
394 3 2 1 1 193 201 202 194
395 3 2 1 1 194 202 203 195
396 3 2 1 1 195 203 204 196
397 3 2 1 1 196 204 205 197
398 3 2 1 1 197 205 206 198
399 3 2 1 1 198 206 207 199
400 3 2 1 1 199 207 208 200
401 3 2 1 1 41 8 42 201
402 3 2 1 1 201 42 43 202
403 3 2 1 1 202 43 44 203
404 3 2 1 1 203 44 45 204
405 3 2 1 1 204 45 46 205
406 3 2 1 1 205 46 47 206
407 3 2 1 1 206 47 48 207
408 3 2 1 1 207 48 49 208
$EndElements
